<svg width="1003" height="188" viewBox="0 0 1003 188" fill="none" xmlns="http://www.w3.org/2000/svg">
    <path d="M5 184L60 3.99999H110.75L165.75 184H130.75L81.75 25.25H88.25L40 184H5ZM38 146.5V114.75H133V146.5H38ZM213.154 184V3.99999H289.154C290.904 3.99999 293.238 4.08333 296.154 4.24999C299.154 4.33333 301.821 4.58333 304.154 4.99999C314.904 6.66666 323.696 10.2083 330.529 15.625C337.446 21.0417 342.529 27.875 345.779 36.125C349.029 44.2917 350.654 53.4167 350.654 63.5C350.654 78.5833 346.904 91.5 339.404 102.25C331.904 112.917 320.154 119.5 304.154 122L289.154 123H247.154V184H213.154ZM314.654 184L279.154 110.75L314.154 104L353.154 184H314.654ZM247.154 91.25H287.654C289.404 91.25 291.321 91.1667 293.404 91C295.488 90.8333 297.404 90.5 299.154 90C303.738 88.75 307.279 86.6667 309.779 83.75C312.279 80.75 313.988 77.4583 314.904 73.875C315.904 70.2083 316.404 66.75 316.404 63.5C316.404 60.25 315.904 56.8333 314.904 53.25C313.988 49.5833 312.279 46.2917 309.779 43.375C307.279 40.375 303.738 38.25 299.154 37C297.404 36.5 295.488 36.1667 293.404 36C291.321 35.8333 289.404 35.75 287.654 35.75H247.154V91.25ZM408.135 184V3.99999H442.135V184H408.135ZM504.609 184V3.99999H538.609V87L607.109 3.99999H648.609L573.359 92.75L653.359 184H610.359L538.609 102V184H504.609ZM695.869 184V3.99999H813.369V35.75H729.869V74.25H798.369V106H729.869V152.25H813.369V184H695.869ZM910.08 184V35.75H853.33V3.99999H1000.83V35.75H944.08V184H910.08Z" fill="#000"/>
</svg>
